<svg width="33" height="33" viewBox="0 0 33 33" fill="none" xmlns="http://www.w3.org/2000/svg">
<path d="M16.5638 19.555C16.5638 20.1049 16.118 20.5508 15.568 20.5508C15.0181 20.5508 14.5723 20.1049 14.5723 19.555C14.5723 19.0051 15.0181 18.5592 15.568 18.5592C16.118 18.5592 16.5638 19.0051 16.5638 19.555Z" fill="#F5F3EF"/>
<path d="M16.235 32.5H32.4994V24.0911H28.6308C26.6866 24.0911 24.9481 22.8809 24.273 21.0578L21.8114 14.4099C21.8114 11.9351 19.8051 9.92889 17.3304 9.92889H17.2308V14.4099L14.9359 14.7281C13.8363 15.0614 12.8635 15.72 12.1457 16.6172L11.2156 17.7799C10.8187 18.2761 10.2307 18.5816 9.59651 18.6213L5.96034 18.8485C5.58811 18.8718 5.3081 19.1971 5.34043 19.5686L5.47081 21.0682C5.73927 24.1557 8.32391 26.5253 11.423 26.5253C13.6252 26.5253 15.5046 28.1174 15.8666 30.2896L16.235 32.5Z" stroke="#F5F3EF" stroke-miterlimit="10" stroke-linecap="round" stroke-linejoin="round"/>
<path d="M7.80236 4.48389H14.0426C14.7437 4.48389 15.438 4.6227 16.0852 4.89243L21.3383 7.08123C22.3139 7.48777 23.4377 7.06968 23.9104 6.12428C24.4085 5.12797 24.0018 3.91643 23.0033 3.42252L19.4612 1.67054C17.9056 0.90106 16.1934 0.500755 14.4578 0.500755H0.5V4.48389" stroke="#F5F3EF" stroke-miterlimit="10" stroke-linecap="round" stroke-linejoin="round"/>
<path d="M0.5 4.48516V8.4683L0.946307 8.76584C3.05264 10.1701 5.82561 10.0497 7.80236 8.4683L12.5086 8.46837C13.5757 8.46843 14.4409 7.60363 14.4409 6.53648V6.48649C14.4409 5.37679 13.5516 4.4851 12.4517 4.48516C10.4961 4.48516 7.80236 4.48516 7.80236 4.48516" stroke="#F5F3EF" stroke-miterlimit="10" stroke-linecap="round" stroke-linejoin="round"/>
</svg>
