<svg width="32" height="29" viewBox="0 0 32 29" fill="none" xmlns="http://www.w3.org/2000/svg">
<path d="M18.2965 24.498H13.1445" stroke="white" stroke-miterlimit="10" stroke-linecap="round" stroke-linejoin="round"/>
<path d="M27.0372 24.497H30.9393L29.0448 12.498H2.39456L0.5 24.497H4.40217" stroke="white" stroke-miterlimit="10" stroke-linecap="round" stroke-linejoin="round"/>
<path d="M22.668 21.9728C24.2375 21.9728 25.5099 20.7004 25.5099 19.1309C25.5099 17.5614 24.2375 16.2891 22.668 16.2891C21.0985 16.2891 19.8262 17.5614 19.8262 19.1309C19.8262 20.7004 21.0985 21.9728 22.668 21.9728Z" stroke="white" stroke-miterlimit="10" stroke-linecap="round" stroke-linejoin="round"/>
<path d="M8.77349 21.9728C10.343 21.9728 11.6153 20.7004 11.6153 19.1309C11.6153 17.5614 10.343 16.2891 8.77349 16.2891C7.20398 16.2891 5.93164 17.5614 5.93164 19.1309C5.93164 20.7004 7.20398 21.9728 8.77349 21.9728Z" stroke="white" stroke-miterlimit="10" stroke-linecap="round" stroke-linejoin="round"/>
<path d="M22.6674 6.18555C25.4577 6.18555 27.7196 8.44747 27.7196 11.2377V12.5008H17.6152V11.2377C17.6152 8.44747 19.8772 6.18555 22.6674 6.18555Z" stroke="white" stroke-miterlimit="10" stroke-linecap="round" stroke-linejoin="round"/>
<path d="M22.668 6.18369C24.2375 6.18369 25.5099 4.91135 25.5099 3.34185C25.5099 1.77234 24.2375 0.5 22.668 0.5C21.0985 0.5 19.8262 1.77234 19.8262 3.34185C19.8262 4.91135 21.0985 6.18369 22.668 6.18369Z" stroke="white" stroke-miterlimit="10" stroke-linecap="round" stroke-linejoin="round"/>
<path d="M8.77483 6.18555C11.5651 6.18555 13.827 8.44747 13.827 11.2377V12.5008H3.72266V11.2377C3.72266 8.44747 5.98458 6.18555 8.77483 6.18555Z" stroke="white" stroke-miterlimit="10" stroke-linecap="round" stroke-linejoin="round"/>
<path d="M8.77349 6.18369C10.343 6.18369 11.6153 4.91135 11.6153 3.34185C11.6153 1.77234 10.343 0.5 8.77349 0.5C7.20398 0.5 5.93164 1.77234 5.93164 3.34185C5.93164 4.91135 7.20398 6.18369 8.77349 6.18369Z" stroke="white" stroke-miterlimit="10" stroke-linecap="round" stroke-linejoin="round"/>
<path d="M22.6674 21.9727C25.4577 21.9727 27.7196 24.2346 27.7196 27.0248V28.2879H17.6152V27.0248C17.6152 24.2346 19.8772 21.9727 22.6674 21.9727Z" stroke="white" stroke-miterlimit="10" stroke-linecap="round" stroke-linejoin="round"/>
<path d="M8.77483 21.9727C11.5651 21.9727 13.827 24.2346 13.827 27.0248V28.2879H3.72266V27.0248C3.72266 24.2346 5.98458 21.9727 8.77483 21.9727Z" stroke="white" stroke-miterlimit="10" stroke-linecap="round" stroke-linejoin="round"/>
</svg>
