<svg width="41" height="39" viewBox="0 0 41 39" fill="none" xmlns="http://www.w3.org/2000/svg">
<path d="M35.2858 2.61549C31.9972 1.10237 27.7269 3.32591 25.7663 7.57187C24.656 9.97632 24.4732 12.5857 25.2649 14.731C25.8315 16.2659 26.8376 17.4025 28.1754 18.0179C28.8661 18.3341 29.6173 18.4961 30.377 18.4927C33.1776 18.4927 36.1517 16.4036 37.6948 13.0615C38.8051 10.657 38.9879 8.04757 38.1962 5.90237C37.6299 4.3678 36.6236 3.23121 35.2858 2.61549ZM35.3075 3.72585C35.9877 4.14702 36.5448 4.74014 36.9226 5.44537L36.7719 5.77157L34.7852 4.85757L35.3075 3.72585ZM28.4441 11.0557L29.1941 9.43134L31.181 10.3455L30.431 11.9698L28.4441 11.0557ZM30.0238 12.8517L29.2738 14.476L27.2869 13.5618L28.0369 11.9375L30.0238 12.8517ZM29.6012 8.54957L30.3513 6.92523L32.3382 7.83938L31.588 9.46404L29.6012 8.54957ZM32.0634 10.7512L34.0504 11.6653L33.3003 13.2897L31.3134 12.3755L32.0634 10.7512ZM32.4706 9.86891L33.2206 8.24466L35.2076 9.15881L34.4575 10.7832L32.4706 9.86891ZM33.6278 7.36385L34.3778 5.73984L36.3647 6.65399L35.6147 8.27825L33.6278 7.36385ZM32.0656 3.21252C32.3946 3.14408 32.7297 3.10899 33.0658 3.10778C33.5272 3.10643 33.9859 3.17823 34.4248 3.32049L33.903 4.45181L31.9156 3.53758L32.0656 3.21252ZM31.5083 4.41944L33.4953 5.33359L32.7455 6.95793L30.7585 6.04377L31.5083 4.41944ZM30.3172 3.8713L30.6262 4.01343L29.8762 5.63777L28.6841 5.08931C29.1734 4.61432 29.7224 4.2049 30.3172 3.8713ZM27.9899 5.83915L29.4689 6.51963L28.7189 8.14381L26.9721 7.34014C27.2637 6.80908 27.6045 6.30655 27.9899 5.83915ZM26.5442 8.21252L28.3117 9.02607L27.5617 10.6504L25.9807 9.92298C26.1164 9.33695 26.305 8.76444 26.5442 8.21252ZM25.8109 12.8829C25.7303 12.2286 25.7295 11.5669 25.8085 10.9124L27.1545 11.5317L26.4045 13.156L25.8109 12.8829ZM28.1516 16.9064C27.4716 16.4847 26.9148 15.8912 26.5373 15.1857L26.8798 14.444L28.8667 15.3581L28.1516 16.9064ZM31.392 17.423C30.6098 17.5923 29.7969 17.5541 29.034 17.3125L29.749 15.764L31.7359 16.6781L31.392 17.423ZM32.1431 15.7961L30.1562 14.8823L30.9063 13.2579L32.8931 14.1721L32.1431 15.7961ZM33.6185 16.475L33.0255 16.2021L33.7755 14.5778L35.1198 15.1963C34.6721 15.6808 34.1681 16.1102 33.6185 16.4753V16.475ZM35.7635 14.4234L34.1827 13.6964L34.9327 12.0721L36.7022 12.8862C36.437 13.4262 36.1229 13.9409 35.7639 14.4237L35.7635 14.4234ZM37.0895 11.9952L35.3394 11.19L36.0895 9.56563L37.5743 10.2489C37.4677 10.8449 37.3055 11.4296 37.0899 11.9953L37.0895 11.9952ZM37.6952 9.23506L36.4967 8.68361L37.2467 7.05935L37.5585 7.20278C37.6935 7.87135 37.7396 8.55482 37.6956 9.23547L37.6952 9.23506Z" fill="white"/>
<path d="M36.209 0.61755C31.9974 -1.32003 26.5622 1.45457 24.093 6.80279C22.7094 9.79925 22.4881 13.0686 23.4859 15.7723C23.9988 17.1623 24.7948 18.2987 25.823 19.1293L23.8935 23.3084L23.684 23.2636C23.4561 23.2148 23.2246 23.1846 22.9918 23.1731L22.6379 22.6601C22.3511 22.2452 22.2281 21.7387 22.2928 21.2385C22.3882 20.5005 22.2068 19.7533 21.7838 19.1411L11.1062 3.66962C10.6373 2.99278 9.91939 2.52921 9.10956 2.38032C8.29972 2.23144 7.46389 2.40937 6.7849 2.87518C6.4489 3.10599 6.16172 3.40081 5.9398 3.74275C5.71788 4.08469 5.56558 4.46704 5.49162 4.86792C5.41765 5.2688 5.42347 5.68032 5.50875 6.07895C5.59403 6.47757 5.75709 6.85546 5.9886 7.19098L12.2328 16.2386C10.4787 15.9165 8.67122 16.0526 6.98517 16.6337C5.29912 17.2148 3.7916 18.2212 2.60847 19.5556C1.42534 20.89 0.606669 22.5072 0.231663 24.2507C-0.143343 25.9942 -0.0619849 27.805 0.467866 29.5079C0.997716 31.2107 1.95812 32.748 3.25615 33.9709C4.55417 35.1938 6.14588 36.061 7.87725 36.4886C9.60862 36.9161 11.421 36.8895 13.1391 36.4114C14.8572 35.9333 16.4228 35.0198 17.6844 33.7594C17.7585 33.6855 17.8308 33.6104 17.9022 33.5347C17.673 34.1879 17.6349 34.8928 17.7925 35.5668C17.9501 36.2408 18.2968 36.8558 18.7918 37.3396C19.2868 37.8234 19.9096 38.1559 20.587 38.298C21.2644 38.4401 21.9683 38.386 22.616 38.1419C23.2637 37.8978 23.8283 37.4739 24.2435 36.9201C24.6587 36.3663 24.9071 35.7055 24.9598 35.0153C25.0124 34.3251 24.8669 33.6343 24.5405 33.0239C24.2141 32.4135 23.7203 31.909 23.1171 31.5696L23.9016 31.7314L24.7764 32.2053L26.9556 35.3631L26.8918 35.4069C26.7715 35.4896 26.6686 35.5953 26.5892 35.7178C26.5097 35.8403 26.4552 35.9772 26.4287 36.1208C26.4023 36.2644 26.4044 36.4118 26.4349 36.5546C26.4655 36.6974 26.5239 36.8327 26.6068 36.9529C26.9487 37.4467 27.4723 37.785 28.0631 37.8937C28.6538 38.0024 29.2635 37.8726 29.7588 37.5328L31.0361 36.6545C31.3034 36.4704 31.528 36.231 31.6949 35.9526L32.2372 36.2464C32.789 36.5461 33.4351 36.6218 34.0413 36.4578L36.1518 35.8898C36.2785 35.8558 36.3951 35.7917 36.4917 35.7029C36.5883 35.6142 36.662 35.5034 36.7067 35.3801C36.7513 35.2567 36.7655 35.1244 36.748 34.9944C36.7305 34.8644 36.6819 34.7406 36.6063 34.6334L35.0039 32.3616L38.0016 31.0949C38.005 31.0935 38.0083 31.092 38.0116 31.0905C38.1344 31.0355 38.2416 30.9508 38.3237 30.8442C38.4058 30.7376 38.4602 30.6122 38.482 30.4794C38.5039 30.3467 38.4925 30.2105 38.4488 30.0832C38.4052 29.9559 38.3307 29.8414 38.232 29.7499L36.0932 27.6607L38.4409 26.1644C38.5524 26.0934 38.6449 25.9964 38.7105 25.8816C38.7761 25.7669 38.8128 25.6379 38.8174 25.5058C38.822 25.3737 38.7944 25.2425 38.737 25.1235C38.6796 25.0044 38.5941 24.9011 38.4879 24.8225L36.7576 23.5413C36.2865 23.192 35.7056 23.0237 35.1207 23.067L27.4555 23.5619L28.8585 20.5233C29.2728 20.5982 29.693 20.6358 30.1141 20.6354C33.6761 20.6354 37.4341 18.0242 39.3696 13.8326C40.7532 10.8361 40.9745 7.5668 39.9766 4.8631C39.2453 2.88327 37.9429 1.41539 36.209 0.61755ZM23.0341 24.1496L21.7117 30.3149C21.2688 30.2663 20.6333 30.1449 20.224 29.6288C20.5581 28.5949 20.7276 27.5149 20.7265 26.4283C20.7263 26.0519 20.7059 25.6757 20.6655 25.3014C20.9179 24.5402 21.9295 24.0657 23.0341 24.1496ZM20.8462 31.134C20.2734 31.2111 19.7274 31.4245 19.2541 31.7563C19.4745 31.391 19.6719 31.0123 19.845 30.6224C20.1414 30.8578 20.4818 31.0318 20.8462 31.134ZM11.891 17.1645C12.4877 17.263 13.0736 17.4187 13.6406 17.6292C13.7444 17.6683 13.8584 17.6706 13.9638 17.6359C14.0691 17.6011 14.1594 17.5314 14.2196 17.4382V17.4376C14.2588 17.3767 14.2839 17.3078 14.293 17.236C14.3021 17.1642 14.2951 17.0912 14.2724 17.0224C14.2497 16.9536 14.2119 16.8908 14.1617 16.8386C14.1116 16.7863 14.0504 16.7459 13.9826 16.7203C13.8785 16.6816 13.7738 16.6451 13.6687 16.6098L6.78806 6.63896C6.62907 6.40853 6.51709 6.149 6.45853 5.87524C6.39998 5.60147 6.396 5.31884 6.44683 5.04354C6.49765 4.76823 6.60228 4.50566 6.75473 4.27084C6.90717 4.03603 7.10443 3.83359 7.33522 3.67512C7.80213 3.35486 8.37686 3.23253 8.93372 3.33489C9.49058 3.43725 9.98425 3.75596 10.3068 4.22132L20.9838 19.6929C21.2706 20.1078 21.3935 20.6143 21.3288 21.1146C21.2335 21.8525 21.4148 22.5996 21.8379 23.2118L21.8772 23.2684C21.3457 23.3829 20.8506 23.6266 20.4358 23.9782C19.9876 22.128 19.0352 20.4383 17.6844 19.0969C17.4831 18.8958 17.2757 18.705 17.0621 18.5244C17.0136 18.4811 16.957 18.448 16.8956 18.427C16.8341 18.406 16.7691 18.3976 16.7043 18.4022C16.6396 18.4067 16.5764 18.4243 16.5185 18.4537C16.4606 18.4831 16.4092 18.5238 16.3674 18.5735C16.3255 18.6231 16.294 18.6806 16.2748 18.7426C16.2555 18.8046 16.2489 18.8699 16.2553 18.9345C16.2617 18.9991 16.281 19.0618 16.3121 19.1188C16.3431 19.1758 16.3853 19.2261 16.4361 19.2665C16.5063 19.3262 16.5751 19.3879 16.644 19.4504L13.4071 22.6816C12.7552 21.9355 12.2803 21.0518 12.0178 20.0965C11.7552 19.1412 11.7119 18.1389 11.891 17.1645ZM19.6281 24.8795C18.6514 25.0595 17.6468 25.0171 16.6888 24.7554C15.7308 24.4937 14.8441 24.0195 14.0946 23.368L17.3322 20.1358C18.5387 21.4627 19.336 23.11 19.6281 24.8795ZM10.341 17.0366C10.5356 17.0366 10.73 17.0427 10.9244 17.0549C10.7279 18.1745 10.7872 19.3241 11.0978 20.4177C11.4083 21.5112 11.9622 22.5203 12.7178 23.3696L10.341 25.7421L4.03725 19.4497C5.76708 17.8923 8.01339 17.0324 10.341 17.0366ZM0.927476 26.4283C0.921183 24.1019 1.78537 21.8573 3.35014 20.1358L9.65388 26.4283L7.29038 28.7875C6.43117 28.0382 5.4162 27.4892 4.31886 27.1802C3.22152 26.8712 2.06923 26.8099 0.945283 27.0006C0.93387 26.8108 0.927476 26.6201 0.927476 26.4283ZM1.05285 27.9662C2.03164 27.7833 3.03911 27.824 3.99995 28.0853C4.96078 28.3466 5.85012 28.8217 6.60149 29.4751L3.34998 32.7209C2.14117 31.3912 1.34333 29.7398 1.05285 27.9664V27.9662ZM8.80229 35.6941C7.02741 35.4048 5.37332 34.6107 4.03758 33.4067L7.28917 30.1609C7.94306 30.909 8.41893 31.7955 8.681 32.7539C8.94307 33.7123 8.98454 34.7176 8.80229 35.6943V35.6941ZM9.76801 35.8018C9.95789 34.6803 9.89573 33.5305 9.58603 32.436C9.27633 31.3415 8.72686 30.3296 7.97749 29.4738L10.341 27.1145L16.6447 33.4069C15.7152 34.2432 14.6283 34.8857 13.4476 35.297C12.2668 35.7083 11.0159 35.88 9.76801 35.8022V35.8018ZM17.3326 32.7205L11.029 26.4283L13.4067 24.0549C14.7896 25.2819 16.5743 25.9596 18.4231 25.9597C18.8634 25.9593 19.3029 25.9212 19.7368 25.8458C19.7485 26.039 19.7552 26.2332 19.7552 26.4285C19.7614 28.7548 18.8972 30.9993 17.3326 32.7207V32.7205ZM23.999 34.7369C23.999 35.264 23.8427 35.7793 23.5498 36.2176C23.2569 36.6559 22.8406 36.9975 22.3536 37.1993C21.8666 37.401 21.3307 37.4538 20.8137 37.3509C20.2967 37.2481 19.8218 36.9942 19.449 36.6215C19.0763 36.2487 18.8224 35.7738 18.7196 35.2568C18.6167 34.7398 18.6695 34.2039 18.8712 33.7169C19.0729 33.2298 19.4146 32.8136 19.8528 32.5207C20.2911 32.2278 20.8065 32.0715 21.3336 32.0715C22.0403 32.0723 22.7179 32.3533 23.2176 32.8531C23.7173 33.3528 23.9983 34.0304 23.999 34.7371V34.7369ZM23.6982 30.6948L22.6707 30.4752L23.99 24.3227L25.0176 24.5424L23.6982 30.6948ZM26.6611 33.2261L28.5642 34.257L27.7559 34.8127L26.6611 33.2261ZM30.4858 35.8542L29.2085 36.7324C28.9253 36.9267 28.5768 37.0009 28.239 36.9388C27.9013 36.8767 27.6019 36.6835 27.4062 36.4013C27.3958 36.3862 27.3884 36.3692 27.3845 36.3512C27.3807 36.3333 27.3804 36.3147 27.3838 36.2967C27.3871 36.2786 27.394 36.2614 27.404 36.246C27.414 36.2306 27.427 36.2174 27.4422 36.207L29.5231 34.7761L30.8387 35.4884C30.7464 35.6324 30.6264 35.7566 30.4858 35.8539V35.8542ZM35.6833 35.0101L33.7887 35.5201C33.4228 35.6193 33.0327 35.5735 32.6997 35.3924L24.6224 31.0175L24.9867 29.3177L33.6483 32.4582C33.8533 32.5321 34.0305 32.6674 34.1558 32.8456L35.6833 35.0101ZM37.3992 30.2951L34.2059 31.6443L25.1926 28.359L25.4008 27.3877L34.8437 28.0757C34.9326 28.0755 35.0214 28.0694 35.1095 28.0576L37.3992 30.2951ZM35.1878 24.0362C35.5419 24.0093 35.8938 24.1108 36.1791 24.3223L37.7263 25.4679L35.4202 26.9378C35.226 27.0611 34.9974 27.1187 34.768 27.1022L25.6066 26.4292L25.9926 24.6295L35.1878 24.0362ZM26.3521 23.6331L25.6304 23.6798L24.8666 23.5165L26.6321 19.6927C26.8332 19.8116 27.0403 19.9201 27.2525 20.0178C27.4644 20.1151 27.6812 20.2013 27.9022 20.276L26.3521 23.6331ZM38.487 13.4254C36.2418 18.2879 31.3843 20.8495 27.6585 19.1354C26.1638 18.4474 25.0359 17.1685 24.3965 15.4363C23.4875 12.9726 23.698 9.97433 24.9744 7.21017C26.7465 3.37216 30.1461 0.967704 33.3321 0.967704C34.1846 0.963794 35.0277 1.14551 35.8028 1.50022C37.2975 2.18822 38.4253 3.4671 39.0648 5.19925C39.9737 7.66295 39.7633 10.6613 38.487 13.4254Z" fill="white"/>
<path d="M18.5938 20.8965C17.0938 18.8965 15.0938 17.3965 12.5938 16.8965" stroke="white"/>
</svg>
