<svg width="33" height="33" viewBox="0 0 33 33" fill="none" xmlns="http://www.w3.org/2000/svg">
<path d="M20.7123 27.789H15.6602" stroke="white" stroke-miterlimit="10" stroke-linecap="round" stroke-linejoin="round"/>
<path d="M22.9365 24.5019L21.2188 20.2081" stroke="white" stroke-miterlimit="10" stroke-linecap="round" stroke-linejoin="round"/>
<path d="M15.1552 20.2081L13.4375 24.5019" stroke="white" stroke-miterlimit="10" stroke-linecap="round" stroke-linejoin="round"/>
<mask id="mask0_6833_995" style="mask-type:luminance" maskUnits="userSpaceOnUse" x="0" y="0" width="33" height="33">
<path d="M31.834 31.8339V0.499905H0.5V31.8339H31.834Z" fill="white" stroke="white"/>
</mask>
<g mask="url(#mask0_6833_995)">
<path d="M8.58789 27.787C8.58789 29.7401 10.1712 31.3866 12.1244 31.3866C14.0776 31.3866 15.6609 29.7401 15.6609 27.787C15.6609 25.8338 14.0776 24.2504 12.1244 24.2504C10.1712 24.2504 8.58789 25.8338 8.58789 27.787Z" stroke="white" stroke-miterlimit="10" stroke-linecap="round" stroke-linejoin="round"/>
<path d="M20.7129 27.787C20.7129 29.7401 22.2962 31.3866 24.2494 31.3866C26.2026 31.3866 27.7859 29.7401 27.7859 27.787C27.7859 25.8338 26.2026 24.2504 24.2494 24.2504C22.2962 24.2504 20.7129 25.8338 20.7129 27.787Z" stroke="white" stroke-miterlimit="10" stroke-linecap="round" stroke-linejoin="round"/>
<path d="M10.4908 20.2089H25.882C27.6 20.2089 29.103 19.3491 29.5441 18.1141L31.3852 13.1359H5.05078L6.8287 18.1141C7.26982 19.3491 8.77284 20.2089 10.4908 20.2089Z" stroke="white" stroke-miterlimit="10" stroke-linecap="round" stroke-linejoin="round"/>
<path d="M14.6504 13.1366C31.2603 13.1366 31.3857 13.1301 31.3857 13.1366C31.3857 6.44003 26.3463 0.948263 20.2078 0.948263H18.6921L14.6504 13.1366Z" stroke="white" stroke-miterlimit="10" stroke-linecap="round" stroke-linejoin="round"/>
<path d="M5.0502 13.1366L3.62366 8.50031C3.26786 7.34399 2.13756 6.5688 0.945312 6.5688" stroke="white" stroke-miterlimit="10" stroke-linecap="round" stroke-linejoin="round"/>
</g>
</svg>
