<svg width="32" height="32" viewBox="0 0 32 32" fill="none" xmlns="http://www.w3.org/2000/svg">
<path d="M2.16395 29.2754C-0.0546493 27.0568 -0.0546493 23.4598 2.16395 21.2413L21.2413 2.16395C23.4599 -0.0546493 27.0568 -0.0546493 29.2754 2.16395C31.494 4.38255 31.494 7.9795 29.2754 10.1981L10.1981 29.2754C7.9795 31.494 4.38255 31.494 2.16395 29.2754Z" stroke="white" stroke-miterlimit="10"/>
<path d="M1.64505 19.1467C0.938629 18.4403 0.938629 17.295 1.64505 16.5885L2.90879 15.3247C3.61521 14.6183 4.76053 14.6183 5.46695 15.3247C6.17337 16.0312 6.17337 17.1765 5.46695 17.8829L4.20322 19.1466C3.4968 19.8531 2.35147 19.8531 1.64505 19.1467Z" stroke="white" stroke-miterlimit="10"/>
<path d="M15.5611 5.23264C14.8546 4.52622 14.8546 3.38089 15.5611 2.67441L16.8248 1.41067C17.5312 0.704254 18.6765 0.704254 19.383 1.41067C20.0894 2.11709 20.0894 3.26242 19.383 3.96884L18.1192 5.23258C17.4129 5.93906 16.2675 5.93906 15.5611 5.23264Z" stroke="white" stroke-miterlimit="10"/>
<path d="M12.2974 29.797C11.591 29.0906 11.591 27.9453 12.2974 27.2388L13.5611 25.9751C14.2675 25.2687 15.4129 25.2687 16.1193 25.9751C16.8257 26.6815 16.8257 27.8269 16.1193 28.5333L14.8556 29.797C14.1491 30.5035 13.0038 30.5035 12.2974 29.797Z" stroke="white" stroke-miterlimit="10"/>
<path d="M26.2115 15.8811C25.505 15.1747 25.505 14.0293 26.2115 13.3228L27.4752 12.0591C28.1816 11.3527 29.3269 11.3527 30.0334 12.0591C30.7398 12.7655 30.7398 13.9109 30.0334 14.6173L28.7696 15.881C28.0633 16.5875 26.9179 16.5875 26.2115 15.8811Z" stroke="white" stroke-miterlimit="10"/>
</svg>
