<svg width="32" height="32" viewBox="0 0 32 32" fill="none" xmlns="http://www.w3.org/2000/svg">
<mask id="mask0_5615_223" style="mask-type:luminance" maskUnits="userSpaceOnUse" x="0" y="0" width="32" height="32">
<path d="M0 -3.8147e-06H32V32H0V-3.8147e-06Z" fill="white"/>
</mask>
<g mask="url(#mask0_5615_223)">
<path d="M0.625 27.25H13.125V24.75H0.625V27.25Z" stroke="#F5F3EF" stroke-miterlimit="22.926" stroke-linecap="round" stroke-linejoin="round"/>
<path d="M11.875 24.4375V6C11.875 5.31243 11.3123 4.75 10.625 4.75H3.125C2.43775 4.75 1.875 5.31268 1.875 6V24.4375" stroke="#F5F3EF" stroke-miterlimit="22.926" stroke-linecap="round" stroke-linejoin="round"/>
<path d="M12.1875 8.5H31.3751V11.625H12.1875" stroke="#F5F3EF" stroke-miterlimit="22.926" stroke-linecap="round" stroke-linejoin="round"/>
<path d="M4.375 13.5H9.375V8.50006H4.375V13.5Z" stroke="#F5F3EF" stroke-miterlimit="22.926" stroke-linecap="round" stroke-linejoin="round"/>
<path d="M14.5449 11.5L16.2049 8.625" stroke="#F5F3EF" stroke-miterlimit="22.926" stroke-linecap="round" stroke-linejoin="round"/>
<path d="M17.6699 11.5L19.3299 8.625" stroke="#F5F3EF" stroke-miterlimit="22.926" stroke-linecap="round" stroke-linejoin="round"/>
<path d="M23.9199 11.5L25.5799 8.625" stroke="#F5F3EF" stroke-miterlimit="22.926" stroke-linecap="round" stroke-linejoin="round"/>
<path d="M27.0449 11.5L28.7049 8.625" stroke="#F5F3EF" stroke-miterlimit="22.926" stroke-linecap="round" stroke-linejoin="round"/>
</g>
</svg>
