<svg width="26" height="26" viewBox="0 0 26 26" fill="none" xmlns="http://www.w3.org/2000/svg">
<path d="M2.24624 18.2515C1.29341 16.5564 0.75 14.6005 0.75 12.5176C0.75 6.04546 6.04551 0.749996 12.5176 0.749996C18.9897 0.749996 24.2852 6.04546 24.2852 12.5176C24.2852 18.9896 18.9897 24.2852 12.5176 24.2852C10.4347 24.2852 8.47871 23.7417 6.78369 22.7889L0.75 24.2852L2.24624 18.2515Z" stroke="#F5F3EF" stroke-width="1.5" stroke-miterlimit="10" stroke-linecap="round" stroke-linejoin="round"/>
<path d="M11.1389 13.8982C10.6532 13.4109 8.70371 11.2476 9.41308 10.5382C9.60805 10.3432 10.3876 9.8107 10.6918 9.50655C11.7276 8.47076 10.5392 7.18833 9.77714 6.42627C9.71489 6.36402 8.54179 5.10147 6.98437 6.65894C4.19994 9.44336 8.16884 14.436 9.379 15.6581C10.601 16.8683 15.5937 20.8372 18.3782 18.0527C19.9356 16.4953 18.673 15.3222 18.6108 15.26C17.8488 14.4979 16.5663 13.3095 15.5305 14.3453C15.2264 14.6495 14.6939 15.429 14.4989 15.624C13.7895 16.3334 11.6261 14.3839 11.1389 13.8982Z" stroke="#F5F3EF" stroke-width="1.5" stroke-miterlimit="10"/>
</svg>
