<svg width="29" height="29" viewBox="0 0 29 29" fill="none" xmlns="http://www.w3.org/2000/svg">
<path d="M20.9226 22.9639C20.9226 25.4677 18.893 27.4974 16.3892 27.4974H11.8557C9.35195 27.4974 7.32227 25.4677 7.32227 22.9639V3.01673C7.32227 1.76487 8.33714 0.75 9.58899 0.75H18.6559C19.9078 0.75 20.9226 1.76487 20.9226 3.01673V22.9639Z" stroke="#F3B762" stroke-width="1.5" stroke-miterlimit="10" stroke-linecap="round" stroke-linejoin="round"/>
<path d="M16.3906 0.75V3.01673C16.3906 4.26859 17.4055 5.28346 18.6574 5.28346H20.9241" stroke="#F3B762" stroke-width="1.5" stroke-miterlimit="10" stroke-linecap="round" stroke-linejoin="round"/>
<path d="M7.32227 12.0851C7.32227 12.0851 9.58899 9.81836 14.1225 9.81836C18.6559 9.81836 20.9226 12.0851 20.9226 12.0851" stroke="#F3B762" stroke-width="1.5" stroke-miterlimit="10" stroke-linecap="round" stroke-linejoin="round"/>
<path d="M7.32227 5.28346H9.58899C10.8409 5.28346 11.8557 4.26859 11.8557 3.01673V0.75" stroke="#F3B762" stroke-width="1.5" stroke-miterlimit="10" stroke-linecap="round" stroke-linejoin="round"/>
<path d="M5.05859 14.3507L7.32532 12.084" stroke="#F3B762" stroke-width="1.5" stroke-miterlimit="10" stroke-linecap="round" stroke-linejoin="round"/>
<path d="M23.1925 14.3507L20.9258 12.084" stroke="#F3B762" stroke-width="1.5" stroke-miterlimit="10" stroke-linecap="round" stroke-linejoin="round"/>
<path d="M0.75 27.4974V0.75" stroke="#F3B762" stroke-width="1.5" stroke-miterlimit="10" stroke-linecap="round" stroke-linejoin="round"/>
<path d="M27.498 0.75V27.4974" stroke="#F3B762" stroke-width="1.5" stroke-miterlimit="10" stroke-linecap="round" stroke-linejoin="round"/>
<path d="M7.32227 18.4316C7.32227 19.6835 8.33714 20.6984 9.58899 20.6984H18.6559C19.9078 20.6984 20.9226 19.6835 20.9226 18.4316" stroke="#F3B762" stroke-width="1.5" stroke-miterlimit="10" stroke-linecap="round" stroke-linejoin="round"/>
</svg>
