<svg width="32" height="32" viewBox="0 0 32 32" fill="none" xmlns="http://www.w3.org/2000/svg">
<mask id="mask0_5615_292" style="mask-type:luminance" maskUnits="userSpaceOnUse" x="0" y="0" width="32" height="32">
<path d="M0 -3.8147e-06H32V32H0V-3.8147e-06Z" fill="white"/>
</mask>
<g mask="url(#mask0_5615_292)">
<path d="M0.986328 27.0265C1.56377 26.959 2.12195 26.7159 2.56627 26.2984C3.61883 25.3059 5.32445 25.3009 6.38508 26.2865L6.42195 26.3215C7.48195 27.3072 9.18758 27.3022 10.2406 26.3097L10.2532 26.2984C11.0251 25.5703 12.1488 25.374 13.1113 25.7103C13.112 25.7103 13.1126 25.7103 13.1131 25.7109C13.2676 25.764 13.4182 25.8322 13.562 25.914C13.5626 25.9147 13.5638 25.9147 13.5645 25.9153C13.7451 26.0172 13.9157 26.1409 14.072 26.2865L14.1088 26.3215C15.1688 27.3072 16.8745 27.3022 17.9276 26.3097L17.9413 26.2972C18.1206 26.1278 18.3195 25.9872 18.5307 25.8753H18.5313C18.627 25.8247 18.725 25.7803 18.8251 25.7415C19.8001 25.3634 20.9619 25.544 21.7588 26.284L21.8013 26.324C22.8613 27.3084 24.5663 27.3028 25.6188 26.3109L25.6326 26.2984C26.6856 25.3059 28.3913 25.3009 29.4513 26.2865L29.4881 26.3215C29.9195 26.7222 30.5057 26.9649 31.0626 27.0387" stroke="#F5F3EF" stroke-miterlimit="10" stroke-linecap="round" stroke-linejoin="round"/>
<path d="M0.9375 31.0625L0.98625 22.1506C1.56375 22.0831 2.12188 21.84 2.56625 21.4225C3.61875 20.43 5.32438 20.425 6.385 21.4106L6.42188 21.4456C7.34438 22.3037 8.75625 22.4106 9.80125 21.7694C9.95688 21.6744 10.1044 21.5625 10.2406 21.4337L10.2531 21.4225C11.3056 20.43 13.0119 20.425 14.0719 21.4106L14.1088 21.4456C15.1688 22.4312 16.8744 22.4262 17.9275 21.4337L17.9413 21.4212C18.9938 20.4294 20.6988 20.4237 21.7588 21.4081L21.8013 21.4481C21.9269 21.5644 22.0613 21.6675 22.2025 21.7556C23.2556 22.4175 24.6906 22.3094 25.6188 21.435L25.6325 21.4225C26.6856 20.43 28.3913 20.425 29.4513 21.4106L29.4881 21.4456C29.9194 21.8462 30.5056 22.0831 31.0625 22.1569V31.0625H0.9375Z" stroke="#F5F3EF" stroke-miterlimit="10" stroke-linecap="round" stroke-linejoin="round"/>
<path d="M31.0625 22.1562V17.5181" stroke="#F5F3EF" stroke-miterlimit="10" stroke-linecap="round" stroke-linejoin="round"/>
<path d="M0.986328 22.1504V17.5184" stroke="#F5F3EF" stroke-miterlimit="10" stroke-linecap="round" stroke-linejoin="round"/>
<path d="M2.63477 10.2672C2.63477 9.57656 3.19414 9.01719 3.88477 9.01719H4.50977C5.20045 9.01719 5.75977 9.57656 5.75977 10.2672V20.9766" stroke="#F5F3EF" stroke-miterlimit="10" stroke-linecap="round" stroke-linejoin="round"/>
<path d="M9.77539 10.2676C9.77539 9.57695 10.3348 9.01758 11.0254 9.01758H11.6504C12.3411 9.01758 12.9004 9.57695 12.9004 10.2676V21.0176" stroke="#F5F3EF" stroke-miterlimit="10" stroke-linecap="round" stroke-linejoin="round"/>
<path d="M5.75977 13.7695H12.9004" stroke="#F5F3EF" stroke-miterlimit="10" stroke-linecap="round" stroke-linejoin="round"/>
<path d="M5.75977 17.5195H13.5254" stroke="#F5F3EF" stroke-miterlimit="10" stroke-linecap="round" stroke-linejoin="round"/>
<path d="M31.0635 17.5195H13.5254" stroke="#F5F3EF" stroke-miterlimit="10" stroke-linecap="round" stroke-linejoin="round"/>
<path d="M7.63377 17.5195H0.986328" stroke="#F5F3EF" stroke-miterlimit="10" stroke-linecap="round" stroke-linejoin="round"/>
<path d="M31.0625 7.46289L30.8481 7.34602C29.5033 6.61295 27.8685 6.65758 26.5656 7.46289L25.2131 6.88227C24.1393 6.42133 22.9232 6.42133 21.8494 6.88233L20.4969 7.46289L20.4459 7.43233C19.1348 6.64564 17.5029 6.62127 16.1689 7.36827L16 7.46289C16 3.85902 19.3718 0.938015 23.5313 0.938015C27.6908 0.938015 31.0625 3.85902 31.0625 7.46289Z" stroke="#F5F3EF" stroke-miterlimit="10" stroke-linecap="round" stroke-linejoin="round"/>
<path d="M26.5648 7.46289L25.2123 6.88227C24.1385 6.42133 22.9225 6.42133 21.8486 6.88233L20.4961 7.46289C20.4961 3.85902 21.8547 0.938015 23.5305 0.938015C25.2063 0.938015 26.5648 3.85902 26.5648 7.46289Z" stroke="#F5F3EF" stroke-miterlimit="10" stroke-linecap="round" stroke-linejoin="round"/>
<path d="M31.0625 7.46289L30.8481 7.34602C29.5033 6.61295 27.8685 6.65758 26.5656 7.46289L25.2131 6.88233C24.1393 6.42133 22.9232 6.42133 21.8494 6.88233L20.4969 7.46289L20.4459 7.43233C19.1348 6.64564 17.5029 6.62127 16.1689 7.36827L16 7.46289" stroke="#F5F3EF" stroke-miterlimit="10" stroke-linecap="round" stroke-linejoin="round"/>
<path d="M23.5312 6.55597V17.5195" stroke="#F5F3EF" stroke-miterlimit="10" stroke-linecap="round" stroke-linejoin="round"/>
<path d="M21.1445 13.7695H25.9203" stroke="#F5F3EF" stroke-miterlimit="10" stroke-linecap="round" stroke-linejoin="round"/>
</g>
</svg>
