<svg width="30" height="30" viewBox="0 0 30 30" fill="none" xmlns="http://www.w3.org/2000/svg">
<mask id="mask0_5628_2104" style="mask-type:luminance" maskUnits="userSpaceOnUse" x="0" y="0" width="30" height="30">
<path d="M29.25 29.25V0.750008H0.75V29.25H29.25Z" fill="white" stroke="white" stroke-width="1.5"/>
</mask>
<g mask="url(#mask0_5628_2104)">
<path d="M19.0388 9.45321C19.0388 11.6839 17.2306 13.4922 14.9999 13.4922C12.7692 13.4922 10.9609 11.6839 10.9609 9.45321C10.9609 7.22254 12.7692 5.41422 14.9999 5.41422C17.2306 5.41422 19.0388 7.22254 19.0388 9.45321Z" stroke="#F5F3EF" stroke-width="1.5" stroke-miterlimit="10" stroke-linecap="round" stroke-linejoin="round"/>
<path d="M21.7862 4.2086C20.1719 2.12266 17.6371 0.87637 14.9992 0.87637C12.3614 0.87637 9.82658 2.12266 8.21232 4.2086C6.39182 6.56172 6.06603 9.39707 7.02287 12.168C7.94279 14.8316 9.89631 17.0529 11.4936 19.3422C12.6362 20.9799 13.7787 22.6176 14.9213 24.2559C14.9471 24.2928 14.9735 24.3303 14.9992 24.3672C15.025 24.3303 15.0514 24.2928 15.0772 24.2559C16.2198 22.6176 17.3623 20.9799 18.5049 19.3422C20.1022 17.0529 22.0557 14.8316 22.9756 12.168C23.9324 9.39707 23.6067 6.56172 21.7862 4.2086Z" stroke="#F5F3EF" stroke-width="1.5" stroke-miterlimit="10" stroke-linecap="round" stroke-linejoin="round"/>
<path d="M9.62402 22.5719L7.125 24.1504L15 29.125L22.875 24.1504L20.376 22.5719" stroke="#F5F3EF" stroke-width="1.5" stroke-miterlimit="10" stroke-linecap="round" stroke-linejoin="round"/>
</g>
</svg>
