<svg width="30" height="29" viewBox="0 0 30 29" fill="none" xmlns="http://www.w3.org/2000/svg">
<path fill-rule="evenodd" clip-rule="evenodd" d="M0.713946 0C0.531084 0 0.348223 0.0676675 0.208934 0.202312C-0.0696445 0.471601 -0.0696445 0.909368 0.208934 1.17866L5.71406 6.50022V22.5001L0.208934 27.8217C-0.0696445 28.091 -0.0696445 28.5287 0.208934 28.798C0.487512 29.0673 0.940379 29.0673 1.21896 28.798L6.72409 23.4765H23.2759L28.781 28.798C29.0596 29.0673 29.5125 29.0673 29.7911 28.798C30.0696 28.5287 30.0696 28.091 29.7911 27.8217L24.2859 22.5001V6.50022L29.7911 1.17866C30.0696 0.909368 30.0696 0.471601 29.7911 0.202312C29.5125 -0.066977 29.0596 -0.066977 28.781 0.202312L23.2759 5.52388H6.72409L1.21896 0.202312C1.07967 0.0676675 0.896807 0 0.713946 0ZM7.14267 6.90484H22.8573V22.0955H20.0001V9.66678C20.0001 9.28563 19.6801 8.9763 19.2858 8.9763H10.7142C10.3199 8.9763 9.99988 9.28563 9.99988 9.66678V22.0955H7.14267V6.90484ZM11.4285 10.3573H18.5715V22.0955H11.4285V10.3573ZM12.8571 15.1907C12.4628 15.1907 12.1428 15.5 12.1428 15.8811V17.2621C12.1428 17.6433 12.4628 17.9526 12.8571 17.9526C13.2514 17.9526 13.5714 17.6433 13.5714 17.2621V15.8811C13.5714 15.5 13.2514 15.1907 12.8571 15.1907ZM7.85697 24.8574C7.66768 24.8574 7.48554 24.9299 7.35196 25.0597L4.49475 27.8217C4.21617 28.091 4.21617 28.5287 4.49475 28.798C4.77333 29.0673 5.2262 29.0673 5.50477 28.798L8.15269 26.2384H21.8473L24.4952 28.798C24.7738 29.0673 25.2267 29.0673 25.5053 28.798C25.7838 28.5287 25.7838 28.091 25.5053 27.8217L22.648 25.0597C22.5145 24.9299 22.3323 24.8574 22.143 24.8574H7.85697Z" fill="#F3B762"/>
</svg>
