<svg width="33" height="33" viewBox="0 0 33 33" fill="none" xmlns="http://www.w3.org/2000/svg">
<path d="M24.9166 15.3644C29.0213 15.3644 32.3488 12.0369 32.3488 7.9322C32.3488 3.82751 29.0213 0.5 24.9166 0.5C20.8119 0.5 17.4844 3.82751 17.4844 7.9322C17.4844 12.0369 20.8119 15.3644 24.9166 15.3644Z" stroke="#F5F3EF" stroke-miterlimit="10" stroke-linecap="round" stroke-linejoin="round"/>
<path d="M24.9197 4.46094L28.2164 6.85725L26.9582 10.7353H22.8812L21.623 6.85725L24.9197 4.46094Z" stroke="#F5F3EF" stroke-miterlimit="10" stroke-linecap="round" stroke-linejoin="round"/>
<path d="M24.916 4.46401V0.5" stroke="#F5F3EF" stroke-miterlimit="10" stroke-linecap="round" stroke-linejoin="round"/>
<path d="M28.2129 6.85754L31.9821 5.63281" stroke="#F5F3EF" stroke-miterlimit="10" stroke-linecap="round" stroke-linejoin="round"/>
<path d="M26.9551 10.7344L29.2856 13.9408" stroke="#F5F3EF" stroke-miterlimit="10" stroke-linecap="round" stroke-linejoin="round"/>
<path d="M21.6189 6.85754L17.8496 5.63281" stroke="#F5F3EF" stroke-miterlimit="10" stroke-linecap="round" stroke-linejoin="round"/>
<path d="M22.8794 10.7344L20.5488 13.9408" stroke="#F5F3EF" stroke-miterlimit="10" stroke-linecap="round" stroke-linejoin="round"/>
<path d="M5.40551 13.7891C5.40551 13.7891 3.07501 14.9437 1.85399 17.0587C0.632967 19.1731 0.521484 20.9903 0.521484 20.9903C0.521484 20.9903 10.746 26.8915 14.6214 29.1301C18.502 31.3688 21.7828 31.3831 22.595 29.9731C23.8161 27.8587 19.1815 26.1217 13.1615 17.0077C13.1615 17.0077 10.4754 19.2172 7.306 17.3857C4.9755 16.041 5.40551 13.7891 5.40551 13.7891Z" stroke="#F5F3EF" stroke-miterlimit="10" stroke-linecap="round" stroke-linejoin="round"/>
<path d="M1.125 23.2147L1.93716 21.8047" stroke="#F5F3EF" stroke-miterlimit="10" stroke-linecap="round" stroke-linejoin="round"/>
<path d="M4.65039 25.2537L5.46262 23.8438" stroke="#F5F3EF" stroke-miterlimit="10" stroke-linecap="round" stroke-linejoin="round"/>
<path d="M11.6992 29.328L12.5114 27.918" stroke="#F5F3EF" stroke-miterlimit="10" stroke-linecap="round" stroke-linejoin="round"/>
<path d="M15.2188 31.3553L16.0363 29.9453" stroke="#F5F3EF" stroke-miterlimit="10" stroke-linecap="round" stroke-linejoin="round"/>
<path d="M19.3477 32.3553L20.1599 30.9453" stroke="#F5F3EF" stroke-miterlimit="10" stroke-linecap="round" stroke-linejoin="round"/>
<path d="M13.1632 17.2898L13.1314 13.106C12.4625 12.8894 11.7405 12.9462 11.1141 13.2647C10.4876 13.5833 10.0152 14.1375 9.79749 14.8048C9.53738 15.6118 8.76758 17.9778 8.76758 17.9778" stroke="#F5F3EF" stroke-miterlimit="10" stroke-linecap="round" stroke-linejoin="round"/>
<path d="M11.1174 13.2669L10.0557 0.5H0.5C0.5 7.9322 5.41052 11.1174 5.41052 13.793" stroke="#F5F3EF" stroke-miterlimit="10" stroke-linecap="round" stroke-linejoin="round"/>
<path d="M6.16602 24.2465L16.4437 21.4844" stroke="#F5F3EF" stroke-miterlimit="10" stroke-linecap="round" stroke-linejoin="round"/>
</svg>
