<svg width="32" height="32" viewBox="0 0 32 32" fill="none" xmlns="http://www.w3.org/2000/svg">
<path d="M8.34074 22.9851L9.13428 22.8717C10.4871 22.6785 11.867 22.8336 13.1431 23.3226C15.0169 24.0406 17.0928 24.0342 18.9586 23.2958C19.5542 23.0601 20.0955 22.8324 20.4192 22.6654C22.6432 21.518 24.5677 19.7883 25.9286 17.6867C28.7335 13.3555 27.4943 7.53458 23.9651 4.00546C20.436 0.476342 14.6152 -0.762935 10.2839 2.04196C8.18234 3.4029 6.45269 5.32738 5.30527 7.55144C5.13828 7.87513 4.91055 8.41645 4.67487 9.012C3.93644 10.8778 3.93007 12.9537 4.64804 14.8275C5.13702 16.1036 5.2922 17.4835 5.09895 18.8363L4.98556 19.6299" stroke="white" stroke-miterlimit="10"/>
<path d="M4.18918 27.2672L0.707031 23.7851L6.73383 17.7583C7.69538 16.7967 9.25444 16.7967 10.216 17.7583C11.1775 18.7198 11.1775 20.2789 10.216 21.2404L4.18918 27.2672Z" stroke="white" stroke-miterlimit="10"/>
<path d="M5.52734 8.1582L20.1703 22.8012" stroke="white" stroke-miterlimit="10"/>
<path d="M27.5363 30.932C29.3146 30.932 30.7562 29.4904 30.7562 27.7121C30.7562 25.9338 29.3146 24.4922 27.5363 24.4922C25.758 24.4922 24.3164 25.9338 24.3164 27.7121C24.3164 29.4904 25.758 30.932 27.5363 30.932Z" stroke="white" stroke-miterlimit="10"/>
</svg>
